PathFileType	4	(X/Y/Z)	Patient3_R_AnkleIso_Processed.trc
DataRate	CameraRate	NumFrames	NumMarkers	Units	OrigDataRate	OrigDataStartFrame	OrigNumFrames
16.66000000000000	16.66000000000000	9	33	mm	16.66000000000000	1	       50
Frame#	Time	L.Toe			R.Toe			R.Shoulder			L.Heel			Neck			R.Heel			L.Shank.Lateral			R.Shank.Lateral			L.Midfoot.Superior			L.Elbow			R.Midfoot.Lateral			R.Midfoot.Superior			L.Shoulder			R.Thigh.Lateral			R.Elbow			Sacral			L.Thigh.Superior			R.Patella			R.Wrist			R.Shank.Superior			L.Wrist			R.Shank.Inferior			R.Thigh.Superior			R.Thigh.Inferior			L.Asis			L.Shank.Inferior			L.Midfoot.Lateral			Sternum			L.Shank.Superior			R.Asis			L.Patella			L.Thigh.Lateral			L.Thigh.Inferior			
		X1	Y1	Z1	X2	Y2	Z2	X3	Y3	Z3	X4	Y4	Z4	X5	Y5	Z5	X6	Y6	Z6	X7	Y7	Z7	X8	Y8	Z8	X9	Y9	Z9	X10	Y10	Z10	X11	Y11	Z11	X12	Y12	Z12	X13	Y13	Z13	X14	Y14	Z14	X15	Y15	Z15	X16	Y16	Z16	X17	Y17	Z17	X18	Y18	Z18	X19	Y19	Z19	X20	Y20	Z20	X21	Y21	Z21	X22	Y22	Z22	X23	Y23	Z23	X24	Y24	Z24	X25	Y25	Z25	X26	Y26	Z26	X27	Y27	Z27	X28	Y28	Z28	X29	Y29	Z29	X30	Y30	Z30	X31	Y31	Z31	X32	Y32	Z32	X33	Y33	Z33	

1	0.500000	705.2717272	42.89670686	376.7647964	1086.279564	112.8303278	641.0195589	464.9635752	1447.072962	503.3154864	414.7180375	33.25416843	427.1153489	434.7447721	1465.733905	354.573963	788.9553572	139.0009823	640.5391858	479.3548322	324.6757653	292.3028088	735.228466	421.1559873	676.6810579	585.6777924	90.02242819	390.247194	371.5771186	1112.830789	93.61097631	878.1575666	130.2155166	695.9881645	966.9403072	176.0583151	638.5906786	481.429265	1427.318263	213.1420021	632.6567822	720.3223346	625.1471802	548.6922394	1140.493208	651.6483959	416.0227581	969.9230453	375.7265904	662.0073699	736.7546389	298.3728437	773.1744	592.1563571	579.2298161	646.4850434	1267.648534	459.2624526	792.5164928	487.5231268	617.3198303	544.9589213	998.0909272	-59.58858807	855.6803047	323.0844032	636.9336453	690.1822361	790.8264711	557.7381929	729.3925035	685.0249198	563.3674455	614.6559438	966.3878368	272.8099189	548.8638389	229.9281355	363.1506332	490.3618137	27.25818309	359.4268371	575.6227181	1375.012317	372.4145068	571.9707964	381.6173239	330.528656	558.1703363	993.1069108	528.3872213	615.9317416	489.8815885	341.401446	562.8407029	656.4324294	253.6057496	641.4086328	607.5373946	319.2030755
2	0.56122449	705.3487714	42.73589678	376.7714021	1086.568588	112.5864448	641.6263111	466.4775456	1446.971867	503.9268386	414.7378605	33.27981491	427.1051012	436.3047446	1465.831994	355.2313978	789.2738929	138.9355771	641.0400397	480.3186147	324.7078181	292.3507008	735.5766362	421.0879007	677.153412	585.7437559	89.99871316	390.2762896	372.3466562	1113.416765	93.91770244	878.4279955	130.0823857	696.5444243	967.284511	175.9036993	639.1879061	483.057827	1427.461926	213.7546393	633.1336685	720.2116287	625.5613306	549.2652438	1140.151896	652.0962037	416.7113302	969.9460065	375.9968822	662.8449691	736.7570743	298.9068798	773.6925917	592.0755247	579.7378488	647.5344689	1267.23816	459.9042153	792.9692432	487.4244078	617.8299025	545.4745076	998.4134452	-59.36571701	856.056087	322.9651495	637.5164327	690.6912357	790.7603421	558.2180768	729.9175699	684.9591238	563.8696709	615.4359897	966.3741747	273.2614708	549.3559482	229.8967894	363.5012871	490.3861709	27.27558582	359.4238071	576.9770584	1374.825335	373.0532768	572.7770206	381.5667633	331.017736	558.7721969	992.9804668	528.8206935	616.7753461	489.7829253	341.9561698	563.7463554	656.3782219	254.0436929	642.3532044	607.5103721	319.7213798
3	0.62244898	705.406196	42.59538922	376.7873744	1086.483126	112.2984814	642.387168	467.8819968	1446.897556	504.4603053	414.7608425	33.30538427	427.0984617	437.7784595	1465.974246	355.7968574	789.2147735	138.8464754	641.7242701	480.9862359	324.7615107	292.3997137	735.7100123	421.0844633	677.7343263	585.8129347	89.98455995	390.2988953	373.1888247	1113.947663	94.11103627	878.3232369	129.9236852	697.2274031	967.2509501	175.6904529	639.9217242	484.619752	1427.592894	214.2824097	633.5328315	720.1885567	625.9459586	549.5969958	1139.861913	652.4829733	417.2317565	969.9485784	376.2525153	663.430135	736.7813114	299.1869175	774.026242	591.9824356	580.2403015	648.4010979	1266.789238	460.5246172	793.2133734	487.3152998	618.3582335	546.0378282	998.474973	-59.12354559	856.147762	322.8233857	638.1667005	691.0742805	790.7017633	558.6008481	730.2741759	684.8863542	564.3243411	615.9524201	966.3912601	273.5946241	549.718272	229.8505698	363.7134422	490.4066312	27.28213973	359.4328027	578.2100474	1374.615172	373.6377009	573.3959159	381.5253848	331.3029881	559.2593619	992.9027461	529.174768	617.4709187	489.7130917	342.2630149	564.3476605	656.3650304	254.3534778	643.0580127	607.5184309	319.9719498
4	0.683673469	705.4462774	42.49309341	376.7968001	1086.351277	112.26789	643.7289758	469.1000294	1446.890755	504.8923852	414.7844757	33.32305343	427.0969579	439.0575902	1466.144246	356.2446953	789.0398073	138.7360125	642.2379127	481.3076854	324.818242	292.4573818	735.6246705	421.0665465	678.2568416	585.8624838	89.97836583	390.3094735	373.9570912	1114.354207	94.33212324	877.9951657	129.8979682	697.9146898	967.083849	175.613997	640.8233335	485.9566035	1427.723602	214.7129533	633.6506706	720.2050175	626.3177166	549.9024068	1139.680312	652.8090786	417.649527	969.9683886	376.5195968	663.7618064	736.7839555	299.438218	774.0768217	591.917918	580.7421648	649.1442501	1266.448336	461.0320751	793.2018379	487.2427816	618.9027258	546.6126323	998.4701655	-58.80453313	856.0617275	322.7557963	638.7767606	691.2419309	790.6637506	558.9832317	730.3832132	684.8294578	564.7616859	616.3150732	966.4046072	273.9263043	549.9061188	229.8226715	363.8177266	490.4201512	27.27913059	359.44455	579.2705496	1374.453544	374.1292821	573.7232948	381.513903	331.4567828	559.5713601	992.8733028	529.5073752	617.8436358	489.6784591	342.4611253	564.6799216	656.3814194	254.5940921	643.4084607	607.5184851	320.1631486
5	0.744897959	705.466796	42.45908799	376.8039108	1086.314674	111.9335659	645.056922	470.1313689	1446.977068	505.2326282	414.7987013	33.33244671	427.0870638	440.1315865	1466.332719	356.5866484	788.9060766	138.9795721	642.7650859	481.3442594	324.8930512	292.4489061	735.4803163	421.1142427	678.7002228	585.8838776	89.98521506	390.3002531	374.5612808	1114.683848	94.59356794	877.753613	130.0783195	698.6569803	967.081263	175.5900447	641.7425113	487.0674582	1427.859988	215.0652237	633.5122463	720.2980069	626.6940768	550.1386983	1139.624104	653.1455096	417.8899441	970.0209639	376.7952542	663.8532355	736.7857467	299.659574	773.9502427	591.9885293	581.2440021	649.7653886	1266.23623	461.4445907	793.0694625	487.3377755	619.4795661	547.160364	998.5480546	-58.4123777	855.9852465	322.8796416	639.4170784	691.1920273	790.709251	559.3575104	730.3037511	684.8830593	565.1804714	616.49571	966.4182749	274.2674349	549.9337181	229.8212547	363.78782	490.4243885	27.27088341	359.4385408	580.1621974	1374.367643	374.5363224	573.7999628	381.5059156	331.4922528	559.6707381	992.8796767	529.8192013	617.9656222	489.6770281	342.563151	564.7767699	656.416605	254.766083	643.4937956	607.5285907	320.3047388
6	0.806122449	705.473512	42.46263107	376.814253	1086.010194	110.1343545	642.6958665	471.0111503	1447.140155	505.5218252	414.799622	33.33512791	427.0680187	441.0284938	1466.541522	356.873474	788.8736773	140.2157729	644.7640955	481.2859725	324.968656	292.4097059	735.663504	421.581952	679.4580018	585.8903199	90.00299061	390.2836709	375.0431806	1114.983259	94.83335326	878.3843617	129.933421	699.3699068	967.3902121	175.217096	641.71622	487.9776036	1427.990328	215.3784612	633.3705279	720.5907585	627.1386097	550.1896573	1139.662117	653.5170705	417.8090752	970.1306087	377.0520685	663.7908423	736.8137451	299.8116173	773.9423337	592.3535866	581.8019993	650.2236737	1266.057601	461.8259859	793.1662466	487.7682852	620.1315213	547.7246746	998.7711293	-58.00901912	856.1594522	323.3183443	640.3066404	691.0920662	790.9672733	559.7570998	730.2633627	685.1963615	565.6619997	616.4513322	966.4410327	274.5655277	549.9031544	229.830598	363.7132569	490.4280423	27.26777806	359.4194916	580.8855146	1374.310529	374.8953691	573.8039001	381.4936051	331.490775	559.6043882	992.9537649	530.0790448	618.0139169	489.7022774	342.6324352	564.7258804	656.4532672	254.8958092	643.5202872	607.5943352	320.4031681
7	0.867346939	705.4761255	42.46679543	376.8321793	1085.035196	107.5171011	631.9571314	471.6881202	1447.297979	505.7860922	414.7938011	33.32728243	427.0525465	441.7294429	1466.744283	357.1387698	789.3403989	142.1768864	649.7110351	481.243477	325.0356574	292.4088523	736.5617978	422.7793692	681.0003852	585.8934257	90.0227801	390.276501	375.4568152	1115.247134	95.00988084	881.0513443	128.5648813	699.4954132	967.9447483	174.5939877	639.3267296	488.6766658	1428.098911	215.673722	633.4769962	721.110831	627.7164776	550.0707432	1139.707753	653.8609688	417.4529542	970.3947862	377.3642208	663.6673975	736.8725087	300.005328	774.2242876	593.000086	582.4302253	650.4920392	1265.863396	462.2021231	793.7585944	488.4958471	620.7933278	548.3241545	999.1357719	-57.68088294	856.7505011	324.0599556	641.4673932	691.1397169	791.4440678	560.2547399	730.4466956	685.7624703	566.2790799	616.257687	966.476304	274.8519	549.8856163	229.8357727	363.6888017	490.4345342	27.26727455	359.4067651	581.4007619	1374.241717	375.2367016	573.8382668	381.4764563	331.5463091	559.4914269	993.1282131	530.3324685	618.0910197	489.7435519	342.7599834	564.6411106	656.4844704	255.0605919	643.5349828	607.6922795	320.5518563
8	0.928571429	705.4821771	42.46006275	376.8533129	1083.68091	106.6195892	614.0868899	472.0872685	1447.387032	506.0410007	414.7906917	33.3183719	427.046806	442.1967777	1466.893005	357.381911	790.883502	143.5493799	656.2023098	481.2423332	325.1086204	292.5140316	738.1961973	424.3988954	682.95051	585.9046639	90.0370432	390.2787805	375.7957452	1115.465143	95.10408879	885.8322056	126.0425285	698.2581904	968.6801411	174.5197822	634.5134164	489.1755718	1428.177258	215.954952	633.9614854	721.6955295	628.3294802	549.8344264	1139.692041	654.1487924	417.2240183	970.8120848	378.007277	663.5546366	736.955615	300.2592917	774.7623353	593.6827724	582.8799725	650.5868526	1265.674452	462.5897263	794.8040744	489.234389	621.147705	548.8920794	999.574716	-57.4835987	857.7880438	324.8728544	642.3626943	691.4270152	791.9490927	560.6906542	730.8701025	686.349314	566.8027333	616.0186253	966.5389541	275.1899471	549.9056682	229.836374	363.7492155	490.4392915	27.26299272	359.4076134	581.6964153	1374.164686	375.5816709	573.9081894	381.4626515	331.7065213	559.4885603	993.3549555	530.6720933	618.2076054	489.7805762	342.9748336	564.5527952	656.52708	255.3535548	643.4887019	607.7356972	320.7502719
9	0.989795918	705.4992342	42.43280376	376.8612896	1082.806481	108.1949685	596.1603633	472.244996	1447.43476	506.3336806	414.795005	33.31917379	427.0473848	442.4305794	1466.973869	357.6504483	793.5121216	143.866806	660.7037002	481.3379759	325.1817292	292.7770787	740.1943615	425.6305631	683.9760304	585.9299513	90.03970305	390.2957168	376.0424385	1115.628948	95.1744515	891.2612042	123.6579993	695.3800066	969.8093139	175.3072407	628.7582475	489.4829312	1428.228311	216.2687456	634.778363	722.1392984	628.7108342	549.608534	1139.665395	654.4733263	417.3575319	971.1300731	378.9854473	663.503813	737.057161	300.6564291	775.5567622	594.2711605	582.7831557	650.5804135	1265.564756	463.016904	796.1666122	489.8182531	620.8151059	549.3343609	999.9614783	-57.35187609	859.3184154	325.5666552	642.2067427	691.9138131	792.3780615	560.8361454	731.5046162	686.8400035	566.8778887	615.8041413	966.6316033	275.6291376	549.9825153	229.8474927	363.9401074	490.4468774	27.26773186	359.4092793	581.8189387	1374.120961	375.9640234	574.0238352	381.5043581	332.0151224	559.6209976	993.5506285	531.1546591	618.3089087	489.8219316	343.3517105	564.4926858	656.6007916	255.8317931	643.4655056	607.7670018	321.1148117
